<svg width="34" height="34" viewBox="0 0 34 34" fill="none" xmlns="http://www.w3.org/2000/svg">
<path fill-rule="evenodd" clip-rule="evenodd" d="M13.625 29.3749H29.375C29.6734 29.3749 29.9595 29.2563 30.1705 29.0454C30.3815 28.8344 30.5 28.5482 30.5 28.2499V21.4999C30.5 21.2015 30.3815 20.9153 30.1705 20.7044C29.9595 20.4934 29.6734 20.3749 29.375 20.3749H13.625V16.9999C13.6253 16.794 13.569 16.592 13.4624 16.416C13.3557 16.2399 13.2027 16.0965 13.0202 16.0015C12.8376 15.9064 12.6324 15.8633 12.427 15.8769C12.2216 15.8905 12.0239 15.9602 11.8554 16.0785L0.605381 23.9535C0.457078 24.0571 0.335971 24.1949 0.252349 24.3553C0.168727 24.5157 0.125061 24.694 0.125061 24.8749C0.125061 25.0558 0.168727 25.234 0.252349 25.3944C0.335971 25.5548 0.457078 25.6927 0.605381 25.7962L11.8554 33.6712C12.024 33.7891 12.2216 33.8585 12.4269 33.8719C12.6321 33.8852 12.8371 33.8421 13.0195 33.7471C13.202 33.6521 13.3549 33.5089 13.4616 33.3331C13.5684 33.1573 13.6249 32.9556 13.625 32.7499V29.3749ZM20.375 13.6249V16.9999C20.3747 17.2057 20.431 17.4077 20.5376 17.5837C20.6443 17.7598 20.7973 17.9032 20.9799 17.9983C21.1624 18.0933 21.3676 18.1364 21.573 18.1228C21.7784 18.1092 21.9762 18.0395 22.1446 17.9212L33.3946 10.0462C33.5429 9.94265 33.664 9.8048 33.7477 9.64439C33.8313 9.48398 33.8749 9.30576 33.8749 9.12486C33.8749 8.94397 33.8313 8.76574 33.7477 8.60534C33.664 8.44493 33.5429 8.30707 33.3946 8.20349L22.1446 0.328489C21.9761 0.21063 21.7784 0.141242 21.5731 0.127869C21.3679 0.114496 21.1629 0.15765 20.9805 0.25264C20.798 0.347629 20.6451 0.490818 20.5384 0.666637C20.4316 0.842456 20.3751 1.04418 20.375 1.24986V4.62486H4.62501C4.32664 4.62486 4.04049 4.74339 3.82951 4.95437C3.61853 5.16535 3.50001 5.4515 3.50001 5.74986V12.4999C3.50001 12.7982 3.61853 13.0844 3.82951 13.2954C4.04049 13.5063 4.32664 13.6249 4.62501 13.6249H20.375Z" fill="#435173"/>
</svg>
