<svg width="32" height="32" viewBox="0 0 32 32" fill="none" xmlns="http://www.w3.org/2000/svg">
<path d="M27.68 4.23992L18.68 2.07992C18.2466 1.97623 17.7952 1.97278 17.3603 2.06982C16.9253 2.16686 16.5182 2.36184 16.17 2.63992C15.8126 2.9223 15.5223 3.28044 15.32 3.68853C15.1177 4.09662 15.0084 4.54451 15 4.99992H7C6.59921 4.99978 6.20246 5.07994 5.83316 5.23569C5.46387 5.39143 5.12953 5.61959 4.84989 5.90669C4.57024 6.1938 4.35095 6.53402 4.20498 6.90729C4.05901 7.28055 3.98931 7.67927 4 8.07992V8.99992C4 9.26514 4.10536 9.51949 4.29289 9.70703C4.48043 9.89456 4.73478 9.99992 5 9.99992C5.26522 9.99992 5.51957 9.89456 5.70711 9.70703C5.89464 9.51949 6 9.26514 6 8.99992V8.07992C5.98893 7.94203 6.00659 7.80334 6.05187 7.67263C6.09714 7.54191 6.16905 7.42201 6.26303 7.32051C6.35702 7.219 6.47104 7.1381 6.59789 7.08292C6.72474 7.02774 6.86167 6.99948 7 6.99992H15V24.9999H7C6.86167 25.0004 6.72474 24.9721 6.59789 24.9169C6.47104 24.8617 6.35702 24.7808 6.26303 24.6793C6.16905 24.5778 6.09714 24.4579 6.05187 24.3272C6.00659 24.1965 5.98893 24.0578 6 23.9199V22.9999C6 22.7347 5.89464 22.4803 5.70711 22.2928C5.51957 22.1053 5.26522 21.9999 5 21.9999C4.73478 21.9999 4.48043 22.1053 4.29289 22.2928C4.10536 22.4803 4 22.7347 4 22.9999V23.9199C3.98931 24.3206 4.05901 24.7193 4.20498 25.0926C4.35095 25.4658 4.57024 25.806 4.84989 26.0931C5.12953 26.3802 5.46387 26.6084 5.83316 26.7642C6.20246 26.9199 6.59921 27.0001 7 26.9999H15C15.0072 27.4545 15.1149 27.9019 15.3155 28.3099C15.516 28.718 15.8044 29.0765 16.16 29.3599C16.5079 29.6387 16.915 29.8341 17.35 29.9311C17.7851 30.0282 18.2366 30.0244 18.67 29.9199L27.67 27.7599C28.3386 27.5952 28.9317 27.209 29.353 26.6643C29.7742 26.1196 29.9987 25.4484 29.99 24.7599V7.24992C30.0015 6.56105 29.7795 5.88856 29.36 5.342C28.9406 4.79543 28.3484 4.40698 27.68 4.23992Z" fill="#435173"/>
<path d="M6 18.9997V19.9997C6.00093 20.1798 6.05047 20.3563 6.14339 20.5106C6.23631 20.6648 6.36917 20.7911 6.52792 20.8761C6.68668 20.9611 6.86545 21.0017 7.04535 20.9935C7.22525 20.9854 7.3996 20.9288 7.55 20.8297L13.55 16.8297C13.6861 16.7383 13.7977 16.6147 13.8748 16.47C13.9519 16.3252 13.9922 16.1637 13.9922 15.9997C13.9922 15.8357 13.9519 15.6742 13.8748 15.5295C13.7977 15.3848 13.6861 15.2612 13.55 15.1697L7.55 11.1697C7.3996 11.0707 7.22525 11.0141 7.04535 11.0059C6.86545 10.9977 6.68668 11.0383 6.52792 11.1233C6.36917 11.2083 6.23631 11.3346 6.14339 11.4889C6.05047 11.6432 6.00093 11.8196 6 11.9997V12.9997H4C3.46957 12.9997 2.96086 13.2104 2.58579 13.5855C2.21071 13.9606 2 14.4693 2 14.9997V16.9997C2 17.5302 2.21071 18.0389 2.58579 18.4139C2.96086 18.789 3.46957 18.9997 4 18.9997H6Z" fill="#435173"/>
</svg>
