<svg width="32" height="32" viewBox="0 0 32 32" fill="none" xmlns="http://www.w3.org/2000/svg">
<g clip-path="url(#clip0_2001_1765)">
<path d="M2.16956 23.8234V29.0105C2.16956 29.3261 2.42595 29.589 2.7481 29.589H6.75843C7.074 29.589 7.33697 29.3326 7.33697 29.0105V19.8853L4.42455 22.7978C3.80656 23.4092 3.01764 23.7642 2.16956 23.8234ZM9.33557 19.8196V29.0105C9.33557 29.3261 9.59197 29.589 9.91411 29.589H13.9244C14.24 29.589 14.503 29.3326 14.503 29.0105V23.5998C13.5892 23.5801 12.7345 23.2185 12.0902 22.5742L9.33557 19.8196ZM16.5016 23.0279V29.0105C16.5016 29.3261 16.758 29.589 17.0801 29.589H21.0905C21.406 29.589 21.669 29.3326 21.669 29.0105V17.9722L17.0736 22.5677C16.896 22.7452 16.7054 22.8964 16.5016 23.0279ZM28.4471 11.1875L23.6676 15.967V29.0105C23.6676 29.3261 23.924 29.589 24.2461 29.589H28.2565C28.572 29.589 28.835 29.3326 28.835 29.0105V11.5491C28.7035 11.4373 28.6049 11.3387 28.5326 11.273L28.4471 11.1875Z" fill="#435173"/>
<path d="M31.7277 2.71964C31.537 2.51583 31.2478 2.41064 30.8796 2.41064H30.7744C28.9073 2.49611 27.0468 2.58815 25.1797 2.67362C24.9298 2.68677 24.588 2.69991 24.3184 2.96946C24.233 3.05493 24.1672 3.15354 24.1146 3.27188C23.8385 3.87014 24.2264 4.25803 24.4105 4.44211L24.8772 4.91546C25.1994 5.24418 25.5281 5.57289 25.8568 5.89504L14.5753 17.1832L9.50647 12.1143C9.20405 11.8119 8.79645 11.641 8.36254 11.641C7.92864 11.641 7.5276 11.8119 7.22518 12.1143L0.473351 18.8596C-0.157784 19.4907 -0.157784 20.5098 0.473351 21.1409L0.77577 21.4433C1.07819 21.7457 1.4858 21.9167 1.9197 21.9167C2.35361 21.9167 2.75464 21.7457 3.05706 21.4433L8.36254 16.1378L13.4313 21.2066C13.7338 21.5091 14.1414 21.68 14.5753 21.68C15.0092 21.68 15.4102 21.5091 15.7192 21.2066L28.4471 8.47875L29.8869 9.91195C30.0578 10.0829 30.2945 10.3196 30.6561 10.3196C30.8073 10.3196 30.9585 10.2801 31.1163 10.1946C31.2215 10.1355 31.3135 10.0697 31.3924 9.99084C31.6751 9.70814 31.7277 9.34656 31.7408 9.06386C31.7934 7.85419 31.8526 6.64451 31.9118 5.42826L31.9972 3.60717C32.017 3.22586 31.9315 2.93002 31.7277 2.71964Z" fill="#435173"/>
</g>
<defs>
<clipPath id="clip0_2001_1765">
<rect width="32" height="32" fill="white"/>
</clipPath>
</defs>
</svg>
