<svg width="28" height="24" viewBox="0 0 28 24" fill="none" xmlns="http://www.w3.org/2000/svg">
<path d="M1.89832 18.8454V23.3842C1.89832 23.6603 2.12266 23.8904 2.40454 23.8904H5.91358C6.18971 23.8904 6.41981 23.6661 6.41981 23.3842V15.3997L3.87143 17.948C3.3307 18.483 2.64039 18.7937 1.89832 18.8454ZM8.16858 15.3421V23.3842C8.16858 23.6603 8.39293 23.8904 8.6748 23.8904H12.1838C12.46 23.8904 12.6901 23.6661 12.6901 23.3842V18.6498C11.8905 18.6326 11.1426 18.3162 10.5789 17.7525L8.16858 15.3421ZM14.4388 18.1494V23.3842C14.4388 23.6603 14.6632 23.8904 14.9451 23.8904H18.4541C18.7302 23.8904 18.9603 23.6661 18.9603 23.3842V13.7257L14.9393 17.7467C14.784 17.902 14.6172 18.0343 14.4388 18.1494ZM24.8912 7.78906L20.7091 11.9712V23.3842C20.7091 23.6603 20.9334 23.8904 21.2153 23.8904H24.7244C25.0005 23.8904 25.2306 23.6661 25.2306 23.3842V8.10545C25.1155 8.00766 25.0293 7.92137 24.966 7.86384L24.8912 7.78906Z" fill="#435173"/>
<path d="M27.7617 0.379744C27.5949 0.201415 27.3418 0.109375 27.0197 0.109375H26.9276C25.2939 0.184158 23.6659 0.264693 22.0322 0.339476C21.8136 0.350981 21.5145 0.362486 21.2786 0.59834C21.2038 0.673123 21.1463 0.759411 21.1003 0.862957C20.8587 1.38644 21.1981 1.72584 21.3592 1.88691L21.7676 2.30109C22.0495 2.58872 22.3371 2.87634 22.6247 3.15822L12.7534 13.0353L8.31816 8.60011C8.05355 8.3355 7.69689 8.18593 7.31722 8.18593C6.93756 8.18593 6.58665 8.3355 6.32203 8.60011L0.414182 14.5022C-0.138061 15.0545 -0.138061 15.9461 0.414182 16.4983L0.678799 16.763C0.943416 17.0276 1.30007 17.1771 1.67974 17.1771C2.05941 17.1771 2.41031 17.0276 2.67493 16.763L7.31722 12.1207L11.7524 16.5559C12.017 16.8205 12.3737 16.9701 12.7534 16.9701C13.133 16.9701 13.4839 16.8205 13.7543 16.5559L24.8912 5.41896L26.151 6.67302C26.3006 6.82258 26.5077 7.02967 26.8241 7.02967C26.9564 7.02967 27.0887 6.99516 27.2267 6.92037C27.3188 6.8686 27.3993 6.81108 27.4683 6.74205C27.7157 6.49469 27.7617 6.1783 27.7732 5.93094C27.8193 4.87247 27.871 3.81401 27.9228 2.74979L27.9976 1.15634C28.0148 0.822689 27.9401 0.563825 27.7617 0.379744Z" fill="#435173"/>
</svg>
