<svg width="28" height="28" viewBox="0 0 28 28" fill="none" xmlns="http://www.w3.org/2000/svg">
<path fill-rule="evenodd" clip-rule="evenodd" d="M11.375 23.625H23.625C23.8571 23.625 24.0796 23.5328 24.2437 23.3687C24.4078 23.2046 24.5 22.9821 24.5 22.75V17.5C24.5 17.2679 24.4078 17.0454 24.2437 16.8813C24.0796 16.7172 23.8571 16.625 23.625 16.625H11.375V14C11.3752 13.8399 11.3315 13.6828 11.2485 13.5459C11.1656 13.4089 11.0466 13.2974 10.9046 13.2235C10.7626 13.1495 10.603 13.116 10.4432 13.1266C10.2835 13.1371 10.1297 13.1914 9.99864 13.2834L1.24864 19.4084C1.1333 19.4889 1.0391 19.5962 0.974063 19.7209C0.909023 19.8457 0.875061 19.9843 0.875061 20.125C0.875061 20.2657 0.909023 20.4043 0.974063 20.5291C1.0391 20.6538 1.1333 20.7611 1.24864 20.8416L9.99864 26.9666C10.1298 27.0583 10.2835 27.1123 10.4431 27.1227C10.6028 27.1331 10.7622 27.0995 10.9041 27.0256C11.046 26.9517 11.1649 26.8404 11.248 26.7036C11.331 26.5669 11.3749 26.41 11.375 26.25V23.625ZM16.625 11.375V14C16.6248 14.1601 16.6686 14.3172 16.7515 14.4541C16.8345 14.5911 16.9534 14.7026 17.0955 14.7765C17.2375 14.8505 17.3971 14.884 17.5568 14.8734C17.7166 14.8629 17.8704 14.8086 18.0014 14.7166L26.7514 8.59163C26.8667 8.51106 26.9609 8.40384 27.026 8.27908C27.091 8.15432 27.125 8.0157 27.125 7.875C27.125 7.73431 27.091 7.59569 27.026 7.47092C26.9609 7.34616 26.8667 7.23894 26.7514 7.15838L18.0014 1.03338C17.8703 0.94171 17.7165 0.887741 17.5569 0.87734C17.3973 0.866939 17.2378 0.900503 17.0959 0.974384C16.954 1.04826 16.8351 1.15963 16.7521 1.29638C16.6691 1.43313 16.6251 1.59002 16.625 1.75V4.375H4.37502C4.14295 4.375 3.92039 4.46719 3.7563 4.63128C3.59221 4.79538 3.50002 5.01794 3.50002 5.25V10.5C3.50002 10.7321 3.59221 10.9546 3.7563 11.1187C3.92039 11.2828 4.14295 11.375 4.37502 11.375H16.625Z" fill="#435173"/>
</svg>
