<svg width="26" height="26" viewBox="0 0 26 26" fill="none" xmlns="http://www.w3.org/2000/svg">
<path d="M26 10.6403V21.4118C26 23.9458 23.9458 26 21.4118 26H4.58824C2.0542 26 0 23.9458 0 21.4118V4.58824C0 2.0542 2.0542 0 4.58824 0H21.4118C23.5007 0 25.2636 1.39603 25.8185 3.30601L14.9118 14.2127L10.8642 10.1651C10.5656 9.86649 10.0814 9.86649 9.7828 10.1651L7.10633 12.8416C6.80768 13.1403 6.80768 13.6245 7.10633 13.9231L14.371 21.1878C14.6697 21.4864 15.1538 21.4864 15.4525 21.1878L26 10.6403Z" fill="#435173"/>
</svg>
