<svg width="28" height="28" viewBox="0 0 28 28" fill="none" xmlns="http://www.w3.org/2000/svg">
<path fill-rule="evenodd" clip-rule="evenodd" d="M8.67891 19.7569C3.85208 19.5577 0 15.5817 0 10.7059C0 5.70281 4.05579 1.64708 9.05882 1.64708C13.3724 1.64708 16.9818 4.66205 17.8947 8.69958C12.7009 9.22398 8.64702 13.6091 8.64702 18.9412C8.64708 19.2157 8.6578 19.4877 8.67891 19.7569ZM18.1176 1.64708H17.7059C17.5967 1.64706 17.492 1.60368 17.4148 1.52647C17.3376 1.44925 17.2942 1.34453 17.2942 1.23534V0.411742C17.2942 0.302541 17.3375 0.197813 17.4148 0.120596C17.492 0.0433799 17.5967 0 17.7059 0L18.1176 0C22.0992 0 25.3475 3.1395 25.5221 7.07804L26.303 6.2971C26.3412 6.25886 26.3866 6.22852 26.4366 6.20782C26.4865 6.18713 26.5401 6.17647 26.5941 6.17647C26.6482 6.17647 26.7018 6.18713 26.7517 6.20782C26.8017 6.22852 26.8471 6.25886 26.8853 6.2971L27.4676 6.87941C27.5448 6.95664 27.5882 7.06137 27.5882 7.17057C27.5882 7.27977 27.5448 7.3845 27.4676 7.46173L25.2882 9.64113C24.9666 9.96275 24.4451 9.96275 24.1236 9.64113L21.9442 7.46173C21.867 7.3845 21.8236 7.27977 21.8236 7.17057C21.8236 7.06137 21.867 6.95664 21.9442 6.87941L22.5265 6.2971C22.5647 6.25886 22.6101 6.22852 22.6601 6.20782C22.71 6.18713 22.7636 6.17647 22.8176 6.17647C22.8717 6.17647 22.9253 6.18713 22.9752 6.20782C23.0252 6.22852 23.0706 6.25886 23.1088 6.2971L23.8718 7.0601C23.6901 4.04009 21.1833 1.64708 18.1176 1.64708ZM18.9412 28C13.9381 28 9.88236 23.9442 9.88236 18.9412C9.88236 13.9381 13.9381 9.88236 18.9412 9.88236C23.9442 9.88236 28 13.9381 28 18.9412C28 23.9442 23.9442 28 18.9412 28Z" fill="#435173"/>
</svg>
