<svg width="16" height="16" viewBox="0 0 16 16" fill="none" xmlns="http://www.w3.org/2000/svg">
<path fill-rule="evenodd" clip-rule="evenodd" d="M1.33331 8.00016C1.33331 7.63197 1.63179 7.3335 1.99998 7.3335H14C14.3682 7.3335 14.6666 7.63197 14.6666 8.00016C14.6666 8.36835 14.3682 8.66683 14 8.66683H1.99998C1.63179 8.66683 1.33331 8.36835 1.33331 8.00016Z" fill="#94989E"/>
<path fill-rule="evenodd" clip-rule="evenodd" d="M9.52859 3.52876C9.78894 3.26841 10.2111 3.26841 10.4714 3.52876L14.4714 7.52876C14.7317 7.78911 14.7317 8.21122 14.4714 8.47157L10.4714 12.4716C10.2111 12.7319 9.78894 12.7319 9.52859 12.4716C9.26824 12.2112 9.26824 11.7891 9.52859 11.5288L13.0572 8.00016L9.52859 4.47157C9.26824 4.21122 9.26824 3.78911 9.52859 3.52876Z" fill="#94989E"/>
</svg>
