<svg width="24" height="24" viewBox="0 0 24 24" fill="none" xmlns="http://www.w3.org/2000/svg">
<g clip-path="url(#clip0_2188_95)">
<path d="M12 24C18.6274 24 24 18.6274 24 12C24 5.37258 18.6274 0 12 0C5.37258 0 0 5.37258 0 12C0 18.6274 5.37258 24 12 24Z" fill="#F7931A"/>
<path fill-rule="evenodd" clip-rule="evenodd" d="M17.4512 10.6097C17.69 9.01273 16.4742 8.15432 14.8117 7.58167L15.3511 5.41848L14.0343 5.09036L13.5092 7.1966C13.1631 7.11026 12.8075 7.02891 12.4542 6.94826L12.983 4.82812L11.6671 4.5L11.1274 6.66249C10.841 6.59727 10.5596 6.5328 10.2866 6.46488L10.2881 6.45808L8.47225 6.00462L8.12196 7.41104C8.12196 7.41104 9.09892 7.63499 9.07833 7.64877C9.61156 7.78186 9.70799 8.13484 9.69198 8.41463L9.07762 10.879C9.11434 10.8883 9.16197 10.9018 9.21452 10.9229L9.17625 10.9134L9.17622 10.9134C9.14375 10.9053 9.10999 10.8968 9.07534 10.8885L8.21422 14.3408C8.14906 14.5028 7.98365 14.7459 7.61084 14.6536C7.62404 14.6727 6.65377 14.4147 6.65377 14.4147L6 15.922L7.7136 16.3492C7.90126 16.3963 8.08669 16.4446 8.27025 16.4925L8.27027 16.4925C8.39854 16.5259 8.52589 16.5591 8.65243 16.5915L8.10753 18.7795L9.42281 19.1076L9.96243 16.9428C10.3218 17.0404 10.6705 17.1303 11.0118 17.2152L10.474 19.3697L11.7909 19.6978L12.3357 17.5139C14.5812 17.9389 16.2695 17.7676 16.9802 15.7366C17.5528 14.1014 16.9517 13.1582 15.7704 12.5432C16.6308 12.3447 17.2789 11.7788 17.4517 10.6098L17.4513 10.6096L17.4512 10.6097ZM14.4426 14.8285C14.0692 16.3287 11.721 15.7085 10.6466 15.4247L10.6464 15.4247C10.5498 15.3992 10.4635 15.3764 10.3899 15.3581L11.113 12.4594C11.2028 12.4818 11.3125 12.5064 11.4367 12.5343L11.4368 12.5343C12.5481 12.7837 14.8251 13.2947 14.4427 14.8285H14.4426ZM11.6597 11.1889C12.5555 11.428 14.5095 11.9495 14.8498 10.586H14.85C15.1975 9.19144 13.2984 8.771 12.371 8.56566C12.2666 8.54255 12.1746 8.52218 12.0994 8.50344L11.4438 11.1324C11.5057 11.1478 11.5783 11.1672 11.6597 11.1889Z" fill="white"/>
</g>
<defs>
<clipPath id="clip0_2188_95">
<rect width="24" height="24" rx="12" fill="white"/>
</clipPath>
</defs>
</svg>
