<svg width="24" height="24" viewBox="0 0 24 24" fill="none" xmlns="http://www.w3.org/2000/svg">
<path d="M12 24C18.6274 24 24 18.6274 24 12C24 5.37258 18.6274 0 12 0C5.37258 0 0 5.37258 0 12C0 18.6274 5.37258 24 12 24Z" fill="#0D8DCB"/>
<path fill-rule="evenodd" clip-rule="evenodd" d="M19.6425 6.85742C20.4712 6.85742 21.1425 7.52867 21.1425 8.35742V15.6429C21.1425 16.4717 20.4712 17.1429 19.6425 17.1429H4.3575C3.52875 17.1429 2.8575 16.4717 2.8575 15.6429V8.35742C2.8575 7.52867 3.52875 6.85742 4.3575 6.85742H19.6425ZM18.1275 8.09417L18.1095 8.10167C18.06 8.11967 18.0075 8.13242 17.9535 8.13917L17.8777 8.14292H14.355C15.6825 8.93042 16.5705 10.3629 16.5705 12.0002C16.5705 13.6367 15.6832 15.0692 14.3565 15.8567H17.877C17.9655 15.8567 18.051 15.8747 18.1282 15.9069C18.4507 15.1419 19.0657 14.5269 19.836 14.1962V9.80417C19.0665 9.47267 18.4507 8.85842 18.1275 8.09417ZM9.645 8.14292H5.85C5.5215 8.88467 4.917 9.48017 4.164 9.80417V14.1962C4.917 14.5202 5.5215 15.1157 5.85075 15.8574L9.64275 15.8567C8.316 15.0692 7.42875 13.6367 7.42875 12.0002C7.42875 10.3629 8.31675 8.93042 9.64425 8.14292H9.645ZM11.994 9.42842C11.9167 9.42992 11.844 9.46142 11.79 9.51542C11.7367 9.57017 11.7075 9.64292 11.7082 9.71867V10.0277C11.1487 10.1417 10.6942 10.5474 10.6942 11.1084C10.6942 11.7729 11.2972 12.2829 11.9985 12.2829C12.4222 12.2829 12.7222 12.5657 12.7222 12.8852C12.7222 13.2047 12.4222 13.4867 11.9985 13.4867C11.5747 13.4867 11.274 13.2047 11.274 12.8852C11.28 12.4989 10.6942 12.4989 10.6942 12.8852C10.6942 13.4477 11.148 13.8482 11.7082 13.9682V14.2817C11.7022 14.6679 12.2887 14.6679 12.2887 14.2817V14.0274C12.8572 13.9104 13.3162 13.4567 13.3027 12.8874C13.3027 12.1269 12.804 11.7137 11.9977 11.7137C11.5747 11.7137 11.274 11.4302 11.274 11.1114C11.274 10.7964 11.568 10.5189 11.982 10.5114C11.9932 10.5122 12.0045 10.5129 12.015 10.5122C12.429 10.5204 12.723 10.7957 12.723 11.1107C12.7177 11.4969 13.3035 11.4969 13.3035 11.1107C13.3035 10.5407 12.858 10.0869 12.2887 9.96917V9.71942C12.2902 9.64217 12.2602 9.56717 12.204 9.51242C12.1485 9.45767 12.0727 9.42767 11.994 9.42842Z" fill="white"/>
</svg>
