<svg width="24" height="24" viewBox="0 0 24 24" fill="none" xmlns="http://www.w3.org/2000/svg">
<g clip-path="url(#clip0_2188_219)">
<path fill-rule="evenodd" clip-rule="evenodd" d="M12 24C5.4 24 0 18.6001 0 11.9402C0.06 5.34038 5.4 -0.0595036 12.06 0.000495204C18.66 0.060494 24 5.40038 24 12.1202C23.94 18.6601 18.6 24 12 24Z" fill="#FC070C"/>
<path fill-rule="evenodd" clip-rule="evenodd" d="M19.4471 8.40591L19.4471 8.4059C18.8913 7.8663 18.3041 7.29612 17.7858 6.83612L17.7333 6.79937C17.646 6.72922 17.5475 6.67421 17.442 6.63662L17.042 6.56199C14.282 6.04701 5.33578 4.37774 5.15175 4.40013C5.09732 4.40775 5.04529 4.42748 4.9995 4.45788L4.94962 4.49725C4.88821 4.55962 4.84157 4.63497 4.81312 4.71775L4.8 4.75187V4.93825V4.96712C5.40737 6.65838 6.98515 10.4354 8.44198 13.9228C9.67364 16.8712 10.8189 19.6127 11.2181 20.7118L11.2183 20.7123C11.2708 20.8752 11.3705 21.1843 11.5567 21.2001H11.5987C11.6985 21.2001 12.1237 20.6383 12.1237 20.6383C12.1237 20.6383 19.7257 11.4194 20.4948 10.4376C20.5944 10.3167 20.6823 10.1866 20.7573 10.0491C20.7963 9.83029 20.7176 9.60707 20.5499 9.46111C20.2225 9.15873 19.8428 8.79007 19.4471 8.40592L19.4471 8.40591ZM14.0741 10.5348L17.3186 7.84414L19.2217 9.59763L14.0741 10.5348ZM7.22811 5.78089L12.8141 10.3589L16.266 7.44776L7.22811 5.78089ZM13.3181 11.5585L19.0353 10.6371L12.4991 18.5121L13.3181 11.5585ZM12.3468 11.2251L6.46946 6.23764L11.4963 18.5174L12.3468 11.2251Z" fill="white"/>
</g>
<defs>
<clipPath id="clip0_2188_219">
<rect width="24" height="24" fill="white"/>
</clipPath>
</defs>
</svg>
