<svg width="24" height="24" viewBox="0 0 24 24" fill="none" xmlns="http://www.w3.org/2000/svg">
<path d="M12 24C18.6274 24 24 18.6274 24 12C24 5.37258 18.6274 0 12 0C5.37258 0 0 5.37258 0 12C0 18.6274 5.37258 24 12 24Z" fill="#50AF95"/>
<path fill-rule="evenodd" clip-rule="evenodd" d="M12.0142 12.8625C11.4277 12.8625 11.0122 12.8438 10.866 12.8378C8.60175 12.7328 6.9105 12.3383 6.9105 11.8477C6.9105 11.358 8.601 10.9605 10.866 10.8563V12.435L12.024 12.4725L13.149 12.4365V10.8563C15.4087 10.9598 17.0955 11.364 17.0955 11.8463C17.0955 12.3285 15.4087 12.7335 13.149 12.8362C13.086 12.843 12.7568 12.861 12.0203 12.861L12.0142 12.8625ZM13.1453 9.28125H16.299V7.125H7.71225V9.27975H10.866V10.6927C8.3025 10.8127 6.375 11.3333 6.375 11.9565C6.375 12.579 8.3025 13.0995 10.8653 13.221V17.7502H13.1437V13.221C15.6997 13.1003 17.625 12.5798 17.625 11.9565C17.625 11.3325 15.7027 10.8127 13.1437 10.692V9.27975L13.1453 9.28125Z" fill="white"/>
</svg>
