<svg width="24" height="24" viewBox="0 0 24 24" fill="none" xmlns="http://www.w3.org/2000/svg">
<path d="M12 24C18.6274 24 24 18.6274 24 12C24 5.37258 18.6274 0 12 0C5.37258 0 0 5.37258 0 12C0 18.6274 5.37258 24 12 24Z" fill="#0D8DCB"/>
<path d="M18.2858 12.7933C18.9173 12.7933 19.4288 13.3048 19.4288 13.9355V18.32C19.4288 18.9515 18.9173 19.463 18.2858 19.463H10.263C9.6315 19.463 9.12 18.9515 9.12 18.32V13.9355C9.12 13.3048 9.6315 12.7933 10.263 12.7933H18.285H18.2858ZM15.4868 17.3413H13.3643L13.3103 17.3473C13.1655 17.3728 13.0598 17.4988 13.0598 17.6458C13.0598 17.7928 13.1655 17.918 13.3103 17.9435L13.3643 17.9495H15.4868L15.5415 17.9435C15.6855 17.9173 15.7898 17.792 15.7898 17.6458C15.7898 17.5648 15.7583 17.4883 15.7013 17.4305C15.6443 17.3735 15.5663 17.342 15.486 17.342H15.4868V17.3413ZM12.1515 17.3413H10.635L10.5803 17.3473C10.4355 17.3728 10.3298 17.4988 10.3298 17.6458C10.3298 17.7928 10.4355 17.918 10.5803 17.9435L10.635 17.9495H12.15L12.2048 17.9435C12.3488 17.9173 12.4538 17.792 12.4538 17.6458C12.4538 17.5648 12.4215 17.4883 12.3645 17.4305C12.3083 17.3735 12.231 17.342 12.15 17.342L12.1515 17.3413ZM11.2418 3.99951C14.8245 3.99951 17.7465 6.82401 17.9055 10.367H17.913V10.973H17.9055C17.892 11.2813 17.8575 11.5858 17.8028 11.8828H17.1855C17.2455 11.5865 17.2845 11.2828 17.3003 10.973H15.0735C15.0578 11.2783 15.018 11.5828 14.9558 11.882H14.3363C14.4045 11.5835 14.4488 11.279 14.466 10.973H11.5523V11.8813H10.9448V10.973H7.91625C7.9455 11.468 8.04225 11.9638 8.21025 12.458V13.928C7.6605 12.944 7.35975 11.9585 7.3095 10.9715H5.1855C5.2875 13.028 6.42675 14.8918 8.2095 15.9215L8.21025 16.6115C6.135 15.5503 4.68825 13.4338 4.578 10.9715H4.57125V10.3655H4.57875C4.737 6.82401 7.65975 3.99951 11.2418 3.99951ZM12.1868 14.6113H10.9035C10.614 14.6113 10.3703 14.8288 10.3358 15.116L10.332 15.1828V15.8593C10.332 16.1488 10.5495 16.3925 10.8368 16.4263L10.9035 16.4308H12.186C12.4763 16.4308 12.72 16.2133 12.7538 15.926L12.7575 15.8585V15.1828C12.7575 14.867 12.5025 14.6113 12.186 14.6113H12.1868ZM10.398 4.66476L10.2728 4.68351C7.4805 5.13126 5.32575 7.48401 5.184 10.367H7.3065C7.4055 8.46051 8.436 6.55476 10.398 4.66401V4.66476ZM10.9373 4.98801C9.02475 6.79326 8.01675 8.58051 7.90875 10.367H10.9373V4.98726V4.98801ZM11.9648 4.64901C13.9373 6.54651 14.9723 8.45601 15.0713 10.367H17.2973C17.151 7.40151 14.8733 4.99551 11.9648 4.64901ZM11.5448 5.08626V10.3663L14.4585 10.367C14.358 8.61276 13.3845 6.85701 11.5388 5.08701H11.5448V5.08626Z" fill="white"/>
</svg>
