<svg width="24" height="24" viewBox="0 0 24 24" fill="none" xmlns="http://www.w3.org/2000/svg">
<path d="M12 24C18.6274 24 24 18.6274 24 12C24 5.37258 18.6274 0 12 0C5.37258 0 0 5.37258 0 12C0 18.6274 5.37258 24 12 24Z" fill="white"/>
<path d="M12 24C18.6274 24 24 18.6274 24 12C24 5.37258 18.6274 0 12 0C5.37258 0 0 5.37258 0 12C0 18.6274 5.37258 24 12 24Z" fill="#D4BDAC"/>
<path d="M11.6745 4.35742C10.7993 4.53142 10.0013 5.38717 9.40725 6.66142H11.6745V4.35742ZM12.339 4.35742V6.66142H14.6063C14.0123 5.38717 13.215 4.53142 12.339 4.35742ZM9.981 4.59592C8.661 4.96117 7.46325 5.67442 6.513 6.66142H8.66025C9.0225 5.81167 9.47025 5.10892 9.98175 4.59592H9.981ZM14.0325 4.59592C14.544 5.10742 14.991 5.81092 15.354 6.66142H17.5005C16.5488 5.67367 15.3518 4.96117 14.0325 4.59592ZM5.93475 7.32967C5.46825 7.93867 5.09475 8.61442 4.8285 9.33442H7.8975C8.019 8.61592 8.18925 7.94317 8.4 7.32967H5.934H5.93475ZM9.1245 7.32967C8.898 7.93567 8.71425 8.61067 8.5815 9.33442H11.6693V7.32967H9.1245ZM12.3345 7.32967V9.32992H15.4223C15.2895 8.60542 15.105 7.93042 14.88 7.32517H12.3345V7.32967ZM15.6045 7.32967C15.816 7.94242 15.9855 8.62042 16.107 9.33442H19.1753C18.909 8.61442 18.5363 7.93942 18.069 7.32967H15.6045ZM4.617 10.0072C4.44375 10.6597 4.356 11.3317 4.3575 12.0074C4.3575 12.6839 4.446 13.3582 4.62225 14.0122H19.3928C19.7453 12.6989 19.7453 11.3159 19.3928 10.0027H4.6215L4.61625 10.0072H4.617ZM4.833 14.6849C5.1 15.4049 5.47275 16.0799 5.94 16.6897H8.4045C8.193 16.0769 8.02425 15.3989 7.902 14.6849H4.83375H4.833ZM8.58675 14.6849C8.7195 15.4087 8.904 16.0837 9.129 16.6897H11.6745V14.6849H8.58675ZM12.3398 14.6849V16.6897H14.8853C15.111 16.0837 15.2955 15.4079 15.4275 14.6849H12.3398ZM16.1175 14.6849C15.9953 15.4027 15.825 16.0762 15.615 16.6897H18.0795C18.5468 16.0807 18.9195 15.4049 19.1858 14.6849H16.1175ZM6.51375 17.3527C7.46475 18.3404 8.6625 19.0537 9.98175 19.4182C9.4695 18.9067 9.02175 18.2032 8.6595 17.3527H6.51375ZM9.40725 17.3527C10.0013 18.6277 10.7985 19.4827 11.6745 19.6574V17.3527H9.40725ZM12.3398 17.3527V19.6574C13.2143 19.4827 14.013 18.6277 14.607 17.3527H12.3398ZM15.3548 17.3527C14.9918 18.2017 14.5448 18.9052 14.0325 19.4182C15.3525 19.0552 16.5495 18.3412 17.5005 17.3527H15.354H15.3548Z" fill="white"/>
</svg>
