<svg width="20" height="20" viewBox="0 0 20 20" fill="none" xmlns="http://www.w3.org/2000/svg">
<path fill-rule="evenodd" clip-rule="evenodd" d="M6.03047 1.54106C6.18331 1.36288 6.4101 1.25 6.66325 1.25C6.66383 1.25 6.6644 1.25 6.66498 1.25C6.87883 1.24956 7.09281 1.33092 7.25596 1.49408L11.006 5.24408C11.3314 5.56951 11.3314 6.09715 11.006 6.42259C10.6805 6.74803 10.1529 6.74803 9.82745 6.42259L7.49658 4.09172V12.9167C7.49658 13.3769 7.12349 13.75 6.66325 13.75C6.20301 13.75 5.82992 13.3769 5.82992 12.9167V4.09864L3.50596 6.42259C3.18053 6.74803 2.65289 6.74803 2.32745 6.42259C2.00201 6.09715 2.00201 5.56951 2.32745 5.24408L6.03047 1.54106Z" fill="#435173"/>
<path fill-rule="evenodd" clip-rule="evenodd" d="M14.5798 7.08333C14.5798 6.6231 14.2067 6.25 13.7465 6.25C13.2863 6.25 12.9132 6.6231 12.9132 7.08333V15.9014L10.5892 13.5774C10.2638 13.252 9.73614 13.252 9.4107 13.5774C9.08527 13.9028 9.08527 14.4305 9.4107 14.7559L13.1137 18.4589C13.2666 18.6371 13.4933 18.75 13.7465 18.75C13.7471 18.75 13.7476 18.75 13.7482 18.75C13.962 18.7504 14.176 18.6691 14.3392 18.5059L18.0892 14.7559C18.4147 14.4305 18.4147 13.9028 18.0892 13.5774C17.7638 13.252 17.2361 13.252 16.9107 13.5774L14.5798 15.9083V7.08333Z" fill="#435173"/>
</svg>
