<svg width="16" height="16" viewBox="0 0 16 16" fill="none" xmlns="http://www.w3.org/2000/svg">
<g clip-path="url(#clip0_2188_620)">
<path d="M8 16C12.4183 16 16 12.4183 16 8C16 3.58172 12.4183 0 8 0C3.58172 0 0 3.58172 0 8C0 12.4183 3.58172 16 8 16Z" fill="#5EC1A6"/>
<path fill-rule="evenodd" clip-rule="evenodd" d="M8.0095 8.575C7.6185 8.575 7.3415 8.5625 7.244 8.5585C5.7345 8.4885 4.607 8.2255 4.607 7.8985C4.607 7.572 5.734 7.307 7.244 7.2375V8.29L8.016 8.315L8.766 8.291V7.2375C10.2725 7.3065 11.397 7.576 11.397 7.8975C11.397 8.219 10.2725 8.489 8.766 8.5575C8.724 8.562 8.5045 8.574 8.0135 8.574L8.0095 8.575ZM8.7635 6.1875H10.866V4.75H5.1415V6.1865H7.244V7.1285C5.535 7.2085 4.25 7.5555 4.25 7.971C4.25 8.386 5.535 8.733 7.2435 8.814V11.8335H8.7625V8.814C10.4665 8.7335 11.75 8.3865 11.75 7.971C11.75 7.555 10.4685 7.2085 8.7625 7.128V6.1865L8.7635 6.1875Z" fill="white"/>
</g>
<defs>
<clipPath id="clip0_2188_620">
<rect width="16" height="16" rx="8" fill="white"/>
</clipPath>
</defs>
</svg>
