<svg width="16" height="16" viewBox="0 0 16 16" fill="none" xmlns="http://www.w3.org/2000/svg">
<g clip-path="url(#clip0_2188_8)">
<path d="M8 16C12.4183 16 16 12.4183 16 8C16 3.58172 12.4183 0 8 0C3.58172 0 0 3.58172 0 8C0 12.4183 3.58172 16 8 16Z" fill="#0D8DCB"/>
<path d="M12.1905 8.529C12.6115 8.529 12.9525 8.87 12.9525 9.2905V12.2135C12.9525 12.6345 12.6115 12.9755 12.1905 12.9755H6.84199C6.42099 12.9755 6.07999 12.6345 6.07999 12.2135V9.2905C6.07999 8.87 6.42099 8.529 6.84199 8.529H12.19H12.1905ZM10.3245 11.561H8.90949L8.87349 11.565C8.77699 11.582 8.70649 11.666 8.70649 11.764C8.70649 11.862 8.77699 11.9455 8.87349 11.9625L8.90949 11.9665H10.3245L10.361 11.9625C10.457 11.945 10.5265 11.8615 10.5265 11.764C10.5265 11.71 10.5055 11.659 10.4675 11.6205C10.4295 11.5825 10.3775 11.5615 10.324 11.5615H10.3245V11.561ZM8.10099 11.561H7.08999L7.05349 11.565C6.95699 11.582 6.88649 11.666 6.88649 11.764C6.88649 11.862 6.95699 11.9455 7.05349 11.9625L7.08999 11.9665H8.09999L8.13649 11.9625C8.23249 11.945 8.30249 11.8615 8.30249 11.764C8.30249 11.71 8.28099 11.659 8.24299 11.6205C8.20549 11.5825 8.15399 11.5615 8.09999 11.5615L8.10099 11.561ZM7.49449 2.6665C9.88299 2.6665 11.831 4.5495 11.937 6.9115H11.942V7.3155H11.937C11.928 7.521 11.905 7.724 11.8685 7.922H11.457C11.497 7.7245 11.523 7.522 11.5335 7.3155H10.049C10.0385 7.519 10.012 7.722 9.97049 7.9215H9.55749C9.60299 7.7225 9.63249 7.5195 9.64399 7.3155H7.70149V7.921H7.29649V7.3155H5.27749C5.29699 7.6455 5.36149 7.976 5.47349 8.3055V9.2855C5.10699 8.6295 4.90649 7.9725 4.87299 7.3145H3.45699C3.52499 8.6855 4.28449 9.928 5.47299 10.6145L5.47349 11.0745C4.08999 10.367 3.12549 8.956 3.05199 7.3145H3.04749V6.9105H3.05249C3.15799 4.5495 5.10649 2.6665 7.49449 2.6665ZM8.12449 9.741H7.26899C7.07599 9.741 6.91349 9.886 6.89049 10.0775L6.88799 10.122V10.573C6.88799 10.766 7.03299 10.9285 7.22449 10.951L7.26899 10.954H8.12399C8.31749 10.954 8.47999 10.809 8.50249 10.6175L8.50499 10.5725V10.122C8.50499 9.9115 8.33499 9.741 8.12399 9.741H8.12449ZM6.93199 3.11L6.84849 3.1225C4.98699 3.421 3.55049 4.9895 3.45599 6.9115H4.87099C4.93699 5.6405 5.62399 4.37 6.93199 3.1095V3.11ZM7.29149 3.3255C6.01649 4.529 5.34449 5.7205 5.27249 6.9115H7.29149V3.325V3.3255ZM7.97649 3.0995C9.29149 4.3645 9.98149 5.6375 10.0475 6.9115H11.5315C11.434 4.9345 9.91549 3.3305 7.97649 3.0995ZM7.69649 3.391V6.911L9.63899 6.9115C9.57199 5.742 8.92299 4.5715 7.69249 3.3915H7.69649V3.391Z" fill="white"/>
</g>
<defs>
<clipPath id="clip0_2188_8">
<rect width="16" height="16" rx="8" fill="white"/>
</clipPath>
</defs>
</svg>
