<svg width="52" height="28" viewBox="0 0 52 28" fill="none" xmlns="http://www.w3.org/2000/svg">
<path d="M0 0H38C45.732 0 52 6.26801 52 14C52 21.732 45.732 28 38 28H0V0Z" fill="#435173"/>
<rect x="24" width="28" height="28" rx="2" fill="#435173"/>
<path fill-rule="evenodd" clip-rule="evenodd" d="M36.8002 18.4002H42.4004C42.5065 18.4002 42.6082 18.358 42.6832 18.283C42.7582 18.208 42.8004 18.1062 42.8004 18.0001V15.6001C42.8004 15.494 42.7582 15.3922 42.6832 15.3172C42.6082 15.2422 42.5065 15.2 42.4004 15.2H36.8002V14C36.8003 13.9268 36.7803 13.855 36.7423 13.7924C36.7044 13.7298 36.65 13.6788 36.5851 13.645C36.5202 13.6112 36.4472 13.5959 36.3742 13.6007C36.3011 13.6055 36.2308 13.6303 36.1709 13.6724L32.1708 16.4725C32.1181 16.5093 32.075 16.5583 32.0453 16.6154C32.0155 16.6724 32 16.7358 32 16.8001C32 16.8644 32.0155 16.9278 32.0453 16.9848C32.075 17.0419 32.1181 17.0909 32.1708 17.1277L36.1709 19.9278C36.2309 19.9697 36.3012 19.9944 36.3741 19.9992C36.4471 20.0039 36.52 19.9886 36.5849 19.9548C36.6497 19.921 36.7041 19.8701 36.7421 19.8076C36.78 19.7451 36.8001 19.6733 36.8002 19.6002V18.4002ZM39.2002 12.8V14C39.2001 14.0732 39.2201 14.145 39.2581 14.2076C39.296 14.2702 39.3504 14.3212 39.4153 14.355C39.4802 14.3888 39.5532 14.4041 39.6262 14.3993C39.6993 14.3945 39.7696 14.3697 39.8295 14.3276L43.8296 11.5275C43.8823 11.4907 43.9254 11.4417 43.9551 11.3846C43.9849 11.3276 44.0004 11.2642 44.0004 11.1999C44.0004 11.1356 43.9849 11.0722 43.9551 11.0152C43.9254 10.9581 43.8823 10.9091 43.8296 10.8723L39.8295 8.07218C39.7695 8.03027 39.6992 8.0056 39.6263 8.00085C39.5533 7.99609 39.4804 8.01144 39.4155 8.04521C39.3507 8.07899 39.2963 8.1299 39.2583 8.19242C39.2204 8.25493 39.2003 8.32666 39.2002 8.39979V9.59984H33.6C33.4939 9.59984 33.3922 9.64198 33.3172 9.717C33.2422 9.79202 33.2 9.89376 33.2 9.99985V12.3999C33.2 12.506 33.2422 12.6078 33.3172 12.6828C33.3922 12.7578 33.4939 12.8 33.6 12.8H39.2002Z" fill="#F5F7FA"/>
</svg>
