<svg width="52" height="28" viewBox="0 0 52 28" fill="none" xmlns="http://www.w3.org/2000/svg">
<path d="M0 0H38C45.732 0 52 6.26801 52 14C52 21.732 45.732 28 38 28H0V0Z" fill="#435173"/>
<rect x="24" width="28" height="28" rx="2" fill="#435173"/>
<g clip-path="url(#clip0_2067_3965)">
<path d="M35.6664 11.6667C38.3372 11.6667 40.3329 10.6109 40.3329 9.66681C40.3329 8.72284 38.3372 7.66699 35.6664 7.66699C32.9957 7.66699 31 8.72284 31 9.66681C31 10.6109 32.9956 11.6667 35.6664 11.6667ZM35.6664 19.6664C36.0563 19.6664 36.4314 19.6437 36.7883 19.6025C36.4852 19.213 36.2375 18.7835 36.0523 18.326C35.9243 18.3304 35.7958 18.3333 35.6664 18.3333C34.1403 18.3333 32.6951 18.0309 31.597 17.4819C31.3808 17.3738 31.1819 17.2577 31 17.1347V17.6666C31 18.6106 32.9956 19.6664 35.6664 19.6664ZM35.6664 16.9999C35.6801 16.9999 35.6936 16.9996 35.7072 16.9996C35.6795 16.7784 35.6656 16.5556 35.6656 16.3327C35.6656 16.107 35.6799 15.8846 35.7072 15.6662C35.6936 15.6662 35.6801 15.6667 35.6664 15.6667C34.1403 15.6667 32.6952 15.3643 31.5971 14.8153C31.3808 14.7072 31.1818 14.5911 31 14.4681V15C31 15.944 32.9956 16.9999 35.6664 16.9999ZM35.6664 14.3332C35.7987 14.3332 35.9292 14.3305 36.0581 14.3255C36.2637 13.8214 36.5451 13.3518 36.8927 12.9328C36.4855 12.9777 36.0761 13.0001 35.6664 13.0002C34.1403 13.0002 32.6952 12.6978 31.5971 12.1487C31.3808 12.0406 31.1818 11.9245 31 11.8015V12.3334C31 13.2774 32.9956 14.3332 35.6664 14.3332ZM37.6667 14.1228C37.373 14.5637 37.1704 15.0588 37.0707 15.5791C37.0231 15.8275 36.9991 16.0798 36.9992 16.3327C36.9992 16.5264 37.0133 16.7168 37.04 16.9032C37.1044 17.3522 37.2452 17.7869 37.4565 18.1884C37.6735 18.6007 37.9604 18.9722 38.3044 19.2863C39.016 19.9362 39.9623 20.3332 40.9996 20.3332C43.2054 20.3332 45 18.5386 45 16.3327C45 14.1268 43.2054 12.3323 40.9996 12.3323C40.7716 12.3323 40.5481 12.3517 40.3304 12.3885C39.2214 12.5761 38.2663 13.2214 37.6667 14.1228Z" fill="white"/>
</g>
<defs>
<clipPath id="clip0_2067_3965">
<rect width="14" height="14" fill="white" transform="translate(31 7)"/>
</clipPath>
</defs>
</svg>
