<svg width="52" height="28" viewBox="0 0 52 28" fill="none" xmlns="http://www.w3.org/2000/svg">
<path d="M0 0H38C45.732 0 52 6.26801 52 14C52 21.732 45.732 28 38 28H0V0Z" fill="#435173"/>
<rect x="24" width="28" height="28" rx="2" fill="#435173"/>
<path d="M31.9579 17.4544V19.7445C31.9579 19.8839 32.0711 20 32.2133 20H33.9839C34.1233 20 34.2394 19.8868 34.2394 19.7445V15.7157L32.9535 17.0015C32.6806 17.2715 32.3323 17.4282 31.9579 17.4544ZM35.1218 15.6867V19.7445C35.1218 19.8839 35.235 20 35.3772 20H37.1478C37.2871 20 37.4032 19.8868 37.4032 19.7445V17.3557C36.9998 17.347 36.6224 17.1873 36.338 16.9029L35.1218 15.6867ZM38.2856 17.1031V19.7445C38.2856 19.8839 38.3988 20 38.5411 20H40.3117C40.451 20 40.5671 19.8868 40.5671 19.7445V14.871L38.5382 16.9C38.4598 16.9783 38.3756 17.0451 38.2856 17.1031ZM43.5597 11.8755L41.4495 13.9857V19.7445C41.4495 19.8839 41.5627 20 41.7049 20H43.4755C43.6149 20 43.731 19.8868 43.731 19.7445V12.0351C43.6729 11.9858 43.6294 11.9422 43.5975 11.9132L43.5597 11.8755Z" fill="#F5F7FA"/>
<path d="M45.0081 8.13642C44.924 8.04644 44.7962 8 44.6337 8H44.5872C43.7629 8.03773 42.9414 8.07837 42.1171 8.11611C42.0068 8.12191 41.8559 8.12772 41.7369 8.24672C41.6991 8.28446 41.6701 8.328 41.6469 8.38025C41.525 8.64439 41.6962 8.81564 41.7775 8.89691L41.9836 9.1059C42.1258 9.25104 42.2709 9.39617 42.4161 9.5384L37.4351 14.5222L35.1972 12.2843C35.0637 12.1508 34.8837 12.0753 34.6922 12.0753C34.5006 12.0753 34.3235 12.1508 34.19 12.2843L31.209 15.2624C30.9303 15.5411 30.9303 15.991 31.209 16.2696L31.3425 16.4031C31.476 16.5367 31.656 16.6121 31.8476 16.6121C32.0391 16.6121 32.2162 16.5367 32.3497 16.4031L34.6922 14.0607L36.9301 16.2986C37.0636 16.4322 37.2436 16.5076 37.4351 16.5076C37.6267 16.5076 37.8038 16.4322 37.9402 16.2986L43.5597 10.6791L44.1954 11.3119C44.2709 11.3874 44.3754 11.4919 44.535 11.4919C44.6018 11.4919 44.6685 11.4745 44.7382 11.4367C44.7846 11.4106 44.8253 11.3816 44.8601 11.3467C44.9849 11.2219 45.0081 11.0623 45.0139 10.9375C45.0372 10.4034 45.0633 9.8693 45.0894 9.33231L45.1271 8.52828C45.1358 8.35993 45.0981 8.22931 45.0081 8.13642Z" fill="#F5F7FA"/>
</svg>
