<svg width="52" height="28" viewBox="0 0 52 28" fill="none" xmlns="http://www.w3.org/2000/svg">
<path d="M0 0H38C45.732 0 52 6.26801 52 14C52 21.732 45.732 28 38 28H0V0Z" fill="#435173"/>
<rect x="24" width="28" height="28" rx="2" fill="#435173"/>
<path d="M45.0001 15.7977C45.0001 14.1845 44.0746 12.7448 42.6885 12.0444C42.6455 15.1375 40.1378 17.6452 37.0447 17.6883C37.745 19.0743 39.1847 19.9998 40.7979 19.9998C41.5543 19.9998 42.2898 19.7984 42.9361 19.4156L44.9817 19.9815L44.4159 17.9358C44.7986 17.2896 45.0001 16.554 45.0001 15.7977Z" fill="white"/>
<path d="M41.9277 11.9639C41.9277 9.22676 39.701 7 36.9639 7C34.2268 7 32 9.22676 32 11.9639C32 12.8559 32.2375 13.7245 32.6883 14.487L32.0182 16.9094L34.4407 16.2394C35.2033 16.6903 36.0718 16.9277 36.9639 16.9277C39.701 16.9277 41.9277 14.701 41.9277 11.9639ZM36.2021 10.8086H35.4404C35.4404 9.96852 36.1238 9.28516 36.9639 9.28516C37.8039 9.28516 38.4873 9.96852 38.4873 10.8086C38.4873 11.235 38.3068 11.6448 37.9919 11.9328L37.3447 12.5251V13.1191H36.583V12.1897L37.4776 11.3709C37.6375 11.2246 37.7256 11.0249 37.7256 10.8086C37.7256 10.3886 37.3839 10.0469 36.9639 10.0469C36.5438 10.0469 36.2021 10.3886 36.2021 10.8086ZM36.583 13.8809H37.3447V14.6426H36.583V13.8809Z" fill="white"/>
</svg>
