<svg width="24" height="24" viewBox="0 0 24 24" fill="none" xmlns="http://www.w3.org/2000/svg">
<path fill-rule="evenodd" clip-rule="evenodd" d="M12.0315 4C12.5838 4.00072 13.0309 4.44903 13.0302 5.00131L13.0118 19.0013C13.0111 19.5536 12.5628 20.0007 12.0105 20C11.4582 19.9993 11.0111 19.551 11.0118 18.9987L11.0302 4.99869C11.0309 4.44641 11.4792 3.99928 12.0315 4Z" fill="#94989E"/>
<path fill-rule="evenodd" clip-rule="evenodd" d="M3.99988 12C3.99988 11.4477 4.44759 11 4.99988 11H18.9999C19.5522 11 19.9999 11.4477 19.9999 12C19.9999 12.5523 19.5522 13 18.9999 13H4.99988C4.44759 13 3.99988 12.5523 3.99988 12Z" fill="#94989E"/>
</svg>
